<?xml version="1.0" encoding="utf-8"?>
<!-- Generator: Adobe Illustrator 25.0.0, SVG Export Plug-In . SVG Version: 6.00 Build 0)  -->
<svg version="1.1" id="Layer_1" xmlns="http://www.w3.org/2000/svg" xmlns:xlink="http://www.w3.org/1999/xlink" x="0px" y="0px"
	 viewBox="0 0 256 301" style="enable-background:new 0 0 256 301;" xml:space="preserve">
<style type="text/css">
	.st0{fill:#A4C639;}
</style>
<path class="st0" d="M24,100.4c-9.9,0-17.8,7.9-17.8,17.8v74c0,9.9,7.9,17.8,17.8,17.8s17.8-7.9,17.8-17.8v-74
	C41.8,108.2,33.9,100.4,24,100.4L24,100.4z M231.2,100.4c-9.9,0-17.8,7.9-17.8,17.8v74c0,9.9,7.9,17.8,17.8,17.8
	c9.9,0,17.8-7.9,17.8-17.8v-74C249,108.2,241.1,100.4,231.2,100.4L231.2,100.4z"/>
<path class="st0" d="M98,184.8c-9.9,0-17.8,7.9-17.8,17.8v74c0,9.9,7.9,17.8,17.8,17.8s17.8-7.9,17.8-17.8v-74
	C115.8,192.7,107.9,184.8,98,184.8L98,184.8z M157.2,184.8c-9.9,0-17.8,7.9-17.8,17.8v74c0,9.9,7.9,17.8,17.8,17.8
	c9.9,0,17.8-7.9,17.8-17.8v-74C175,192.7,167.1,184.8,157.2,184.8L157.2,184.8z"/>
<path class="st0" d="M78.4,7.1c-0.4,0-0.8,0.1-1.2,0.3c-1.3,0.7-1.7,2.2-1,3.4l12.5,22.6C64.7,46,48.4,69.8,48.4,97.2h158.5
	c0-27.3-16.3-51.1-40.4-63.7L179,10.9c0.7-1.3,0.3-2.7-1-3.4c-0.4-0.2-0.8-0.3-1.2-0.3c-0.9,0-1.8,0.4-2.2,1.3l-12.7,22.9
	c-10.4-4.6-22-7.2-34.3-7.2s-23.9,2.6-34.3,7.2L80.7,8.4C80.2,7.6,79.3,7.1,78.4,7.1L78.4,7.1z M48.4,103.4v114.8
	c0,10.6,8.5,19.2,19.2,19.2h120.2c10.6,0,19.2-8.5,19.2-19.2V103.4H48.4L48.4,103.4z"/>
<path d="M91.1,54.9c-3.6,0-6.6,3-6.6,6.6c0,3.6,3,6.6,6.6,6.6s6.6-3,6.6-6.6C97.7,57.9,94.7,54.9,91.1,54.9L91.1,54.9z M164.2,54.9
	c-3.6,0-6.6,3-6.6,6.6c0,3.6,3,6.6,6.6,6.6c3.6,0,6.6-3,6.6-6.6C170.8,57.9,167.8,54.9,164.2,54.9L164.2,54.9z"/>
</svg>
