<?xml version="1.0" encoding="utf-8"?>
<!-- Generator: Adobe Illustrator 25.0.0, SVG Export Plug-In . SVG Version: 6.00 Build 0)  -->
<svg version="1.1" id="Layer_1" xmlns="http://www.w3.org/2000/svg" xmlns:xlink="http://www.w3.org/1999/xlink" x="0px" y="0px"
	 viewBox="0 0 175.4 176.1" style="enable-background:new 0 0 175.4 176.1;" xml:space="preserve">
<style type="text/css">
	.st0{fill:#435363;}
	.st1{fill:#F38B00;}
</style>
<g transform="translate(40.960000, 0.000000)">
	<path class="st0" d="M47.1,127.7c-21.9,0-39.6-17.8-39.6-39.6c0-21.9,17.8-39.6,39.6-39.6c18,0,33.3,12.1,38.1,28.6h15.3
		c-5.1-24.8-27.1-43.5-53.4-43.5C17,33.5-7.5,58-7.5,88c0,30.1,24.5,54.5,54.5,54.5c26.3,0,48.3-18.7,53.4-43.5H85.2
		C80.4,115.6,65.1,127.7,47.1,127.7"/>
	<path class="st0" d="M20.3,114.7c6.8,6.8,16.3,11.1,26.7,11.1V110c-6.1,0-11.6-2.5-15.6-6.4L20.3,114.7L20.3,114.7z"/>
	<path class="st1" d="M9.3,88c0,5.4,1.2,10.6,3.2,15.2l14.5-6.4c-1.2-2.7-1.9-5.7-1.9-8.9c0-12.2,9.9-22,22-22V50.2
		C26.2,50.2,9.3,67.2,9.3,88"/>
	<path class="st0" d="M60.8,52.8L55,67.5c4.7,1.8,8.6,5.2,11.1,9.5h17.1C79.9,65.9,71.5,57,60.8,52.8"/>
	<path class="st1" d="M55.1,108.5l5.7,14.7c10.7-4.2,19.1-13.1,22.5-24.2H66.1C63.6,103.3,59.7,106.7,55.1,108.5"/>
	<path class="st0" d="M-22.9,109.2c-0.2-0.8-0.5-1.7-0.7-2.5c0-0.1,0-0.1,0-0.2c-0.2-0.8-0.4-1.6-0.6-2.3c0-0.2-0.1-0.3-0.1-0.5
		c-0.2-0.7-0.3-1.4-0.4-2c-0.1-0.3-0.1-0.6-0.2-0.9c-0.1-0.5-0.2-1.1-0.3-1.6c-0.1-0.5-0.1-0.9-0.2-1.4c-0.4-3.2-0.7-6.4-0.7-9.7
		H-41c0,3.6,0.2,7.1,0.6,10.6l0,0c0,0.1,0,0.2,0,0.2c0.1,0.9,0.2,1.9,0.4,2.8c0,0.3,0.1,0.5,0.1,0.8c0.1,0.8,0.3,1.5,0.4,2.3
		c0.1,0.4,0.2,0.8,0.2,1.2c0.1,0.6,0.3,1.2,0.4,1.8c0.1,0.5,0.3,1.1,0.4,1.6c0.1,0.5,0.2,0.9,0.4,1.4c0.2,0.6,0.4,1.2,0.5,1.9
		c0.1,0.3,0.1,0.5,0.2,0.8h0c1,3.4,2.3,6.7,3.7,10l13.7-6C-21,114.8-22,112-22.9,109.2L-22.9,109.2z"/>
	<path class="st1" d="M47.1,161.1c-20.2,0-38.4-8.2-51.7-21.4l-10.6,10.6c15.9,15.9,37.9,25.8,62.2,25.8c44.9,0,81.9-33.6,87.3-77
		h-15.1C114,134.1,83.6,161.1,47.1,161.1"/>
	<path class="st1" d="M47.1,14.9c16.4,0,31.5,5.4,43.7,14.5l8.9-12C85,6.5,66.8,0,47.1,0C9.7,0-22.2,23.3-35,56.1l13.9,5.4
		C-10.4,34.3,16.1,14.9,47.1,14.9"/>
	<path class="st0" d="M119.3,77h15.1c-1.6-13-6-25-12.7-35.6l-12.7,7.9C114.2,57.6,117.8,67,119.3,77"/>
	<path class="st1" d="M102.4,77h15.1c-3.9-25.4-21.3-46.3-44.6-55.4l-5.4,13.9C85.2,42.4,98.6,58,102.4,77"/>
	<path class="st0" d="M47.1,31.7L47.1,31.7l0-14.9h0c-30.2,0-56,18.9-66.4,45.4l13.9,5.4C2.7,46.6,23.2,31.7,47.1,31.7"/>
	<path class="st1" d="M-9.3,88L-9.3,88h-14.9c0,29.9,18.6,55.6,44.8,66.2l5.5-13.8C5.4,132-9.3,111.7-9.3,88"/>
	<path class="st0" d="M47.1,144.4v14.9c35.6,0,65.1-26.2,70.4-60.3h-15.1C97.2,124.9,74.4,144.4,47.1,144.4"/>
</g>
</svg>
