<?xml version="1.0" encoding="utf-8"?>
<!-- Generator: Adobe Illustrator 25.0.0, SVG Export Plug-In . SVG Version: 6.00 Build 0)  -->
<svg version="1.1" id="Layer_1" xmlns="http://www.w3.org/2000/svg" xmlns:xlink="http://www.w3.org/1999/xlink" x="0px" y="0px"
	 viewBox="0 0 218.3 217.1" style="enable-background:new 0 0 218.3 217.1;" xml:space="preserve">
<style type="text/css">
	.st0{fill:#FED10A;}
	.st1{fill:#24BBB1;}
	.st2{fill:#EF5098;}
	.st3{fill:#17A8E0;}
	.st4{fill:#93C83E;}
	.st5{fill:#0779A1;}
</style>
<path class="st0" d="M83.9,92.1l51.8,23.6l52.2-45.8c0.8-3.8,1.1-7.5,1.1-11.5C189,26.2,162.8,0,130.6,0c-19.3,0-37.2,9.5-48.1,25.4
	l-8.7,45.1L83.9,92.1z"/>
<path class="st1" d="M30.3,146.9c-0.8,3.8-1.1,7.7-1.1,11.7c0,32.3,26.3,58.5,58.6,58.5c19.4,0,37.5-9.6,48.4-25.6l8.6-44.9
	l-11.5-22l-52-23.7L30.3,146.9z"/>
<path class="st2" d="M30,57.3l35.5,8.4l7.8-40.3c-4.8-3.7-10.8-5.7-17-5.7c-15.4,0-28,12.5-28,28C28.3,51,28.9,54.3,30,57.3"/>
<path class="st3" d="M26.9,65.8C11.1,71,0,86.2,0,102.9c0,16.3,10.1,30.8,25.2,36.6l49.8-45L65.9,75L26.9,65.8z"/>
<path class="st4" d="M145.2,191.5c4.9,3.7,10.8,5.8,16.9,5.8c15.4,0,28-12.5,28-28c0-3.4-0.6-6.7-1.7-9.7l-35.4-8.3L145.2,191.5z"/>
<path class="st5" d="M152.4,142l39,9.1c15.9-5.2,26.9-20.4,26.9-37.2c0-16.2-10.1-30.8-25.2-36.5l-51,44.7L152.4,142z"/>
</svg>
