<?xml version="1.0" encoding="utf-8"?>
<!-- Generator: Adobe Illustrator 25.0.0, SVG Export Plug-In . SVG Version: 6.00 Build 0)  -->
<svg version="1.1" id="Calque_1" xmlns="http://www.w3.org/2000/svg" xmlns:xlink="http://www.w3.org/1999/xlink" x="0px" y="0px"
	 viewBox="0 0 195.4 107" style="enable-background:new 0 0 195.4 107;" xml:space="preserve">
<style type="text/css">
	.st0{fill:#FF9E2A;}
</style>
<desc>Created with Sketch.</desc>
<g id="Original-logo-G-FF9E2A">
	<g id="Clip-2">
	</g>
	<g>
		<path class="st0" d="M155.8,96.7c5.4-3.2,10.1-7.5,13.7-12.7h6.3c3.2,0,5.8-2.6,5.8-5.8s-2.6-5.8-5.8-5.8h-0.5
			c1.2-3.7,2-7.5,2.2-11.5h6.2c3.2,0,5.8-2.6,5.8-5.8c0-3.2-2.6-5.8-5.8-5.8h-6.4c-0.4-4-1.4-7.9-2.8-11.5h1.2
			c3.2,0,5.8-2.6,5.8-5.8c0-3.2-2.6-5.8-5.8-5.8h-7.8c-8-10-20.6-16.7-34.7-16.7h-9.9c-6.2,0-12.2,1.3-17.6,3.7h10.4
			c24,0,43.7,19.7,43.7,43.7c0,22.2-16.7,40.6-38.2,43.4c-1.3,0.1-2.6,0.2-4,0.2h-45c7.3-4,13.6-9.7,18.3-16.5
			c0.3,0.1,0.7,0.1,1,0.1h39.2c3.2,0,5.8-2.6,5.8-5.8s-2.6-5.8-5.8-5.8H97c1.4-3.7,2.4-7.5,3-11.5h44.9c3.2,0,5.8-2.6,5.8-5.8
			c0-3.2-2.6-5.8-5.8-5.8h-44.4c-0.3-4-1.1-7.8-2.2-11.5h33c3.2,0,5.8-2.6,5.8-5.8c0-3.2-2.6-5.8-5.8-5.8H93.2
			C83.9,10.6,66.7,0,47.2,0h-3.8C25.6,0,9.7,8.9,0,22.4C8.7,12.3,21.7,5.9,36.1,5.9c20.6,0,38.2,13.1,44.8,31.4H56.7
			c-4.8-6.1-12.3-10-20.6-10C21.6,27.5,9.9,39.2,9.9,53.7S21.7,80,36.2,80c8.6,0,16.2-4.1,21-10.5h-25c0-11.6,9.4-20.9,20.9-20.9
			h8.8h8.9h12.8c0.2,1.7,0.3,3.4,0.3,5.1c0,26.3-21.4,47.7-47.7,47.7c-13.9,0-26.4-6-35.2-15.5C10.8,98.7,26.2,107,43.5,107h3.8
			c0.1,0,0.2,0,0.3,0c9.7,0,73.5,0,74.3,0c40.6,0,73.5-2.4,73.5-5.5C195.4,99.5,179.3,97.6,155.8,96.7z"/>
	</g>
</g>
</svg>
