<?xml version="1.0" encoding="utf-8"?>
<!-- Generator: Adobe Illustrator 25.0.0, SVG Export Plug-In . SVG Version: 6.00 Build 0)  -->
<svg version="1.1" id="Layer_1" xmlns="http://www.w3.org/2000/svg" xmlns:xlink="http://www.w3.org/1999/xlink" x="0px" y="0px"
	 viewBox="0 0 253.6 350.7" style="enable-background:new 0 0 253.6 350.7;" xml:space="preserve">
<style type="text/css">
	.st0{fill:#D33833;}
	.st1{fill:#EF3D3A;}
	.st2{fill:#231F20;}
	.st3{fill:#F0D6B7;}
	.st4{fill:#335061;}
	.st5{fill:#6D6B6D;}
	.st6{fill:#DCD9D8;}
	.st7{fill:#F7E4CD;}
	.st8{fill:#49728B;}
	.st9{fill:#FFFFFF;}
	.st10{stroke:#D33833;stroke-width:2;}
	.st11{fill:#81B0C4;}
	.st12{fill:#1D1919;}
</style>
<path class="st0" d="M249.8,169c0,69.5-55.1,125.8-123,125.8S3.8,238.4,3.8,169s55.1-125.8,123-125.8S249.8,99.5,249.8,169"/>
<path class="st1" d="M8.8,200.1c0,0-8.9-131.2,112-134.9l-8.4-14.1l-65.6,22L28.1,94.7L11.7,126l-9.3,36.5l2.8,24.4"/>
<path class="st2" d="M42.6,83.2C21,105.3,7.6,135.7,7.6,169.5l0,0c0,33.7,13.4,64.2,34.9,86.3l0,0c21.6,22.1,51.3,35.7,84.2,35.7
	l0,0c32.9,0,62.6-13.6,84.2-35.7l0,0c21.5-22.1,34.9-52.6,34.9-86.3l0,0c0-33.7-13.4-64.2-34.9-86.3l0,0
	c-21.6-22-51.3-35.7-84.2-35.7l0,0C94,47.4,64.2,61,42.6,83.2L42.6,83.2L42.6,83.2z M37.1,261.1C14.2,237.6,0,205.2,0,169.5l0,0
	c0-35.7,14.2-68.2,37.1-91.7l0,0c22.9-23.4,54.7-38,89.7-38l0,0c35,0,66.8,14.6,89.7,38l0,0c22.9,23.4,37.1,55.9,37.1,91.7l0,0
	c0,35.7-14.2,68.2-37.1,91.6l0,0c-22.9,23.5-54.7,38-89.7,38l0,0C91.8,299.1,60,284.6,37.1,261.1L37.1,261.1L37.1,261.1z"/>
<path class="st3" d="M178.6,169.7l-18.8,2.8l-25.3,2.9l-16.4,0.4l-16-0.5L90,171.5l-10.8-11.7l-8.4-23.9l-1.9-5.2l-11.2-3.8
	l-6.5-10.8l-4.7-15.5L51.6,87l12.2-4.3l9.8,4.7l4.7,10.3l5.7-0.9l1.9-2.4l-1.9-10.8l-0.5-13.6l2.8-18.8l-0.1-10.7l8.5-13.7l15-10.8
	l26.2-11.2l29.1,4.3l25.3,18.3l11.7,18.8l7.5,13.6l1.9,33.7l-5.7,29.1l-10.3,25.8l-9.7,13.8"/>
<path class="st4" d="M162.7,250.7l-67,2.8v11.2l5.7,39.4l-2.8,3.3l-46.8-16l-3.3-5.7l-4.7-53l-11-31.8l-2.4-7.5L68,167.7l11.7-4.7
	L90,175.7l8.9,7.9l10.3,3.3l4.7,1.4l5.7,24.4l4.3,5.2l10.8-3.8l-7.5,14.6l40.7,19.2L162.7,250.7"/>
<path class="st5" d="M51.6,87.2L63.8,83l9.8,4.7l4.7,10.3l5.7-0.9l1.4-5.7l-2.8-10.8l2.8-25.8L83,40.7l8.4-9.8l18.3-14.5l-5.2-7
	L78.7,22l-10.8,8.4l-6.1,13.1l-9.3,12.7l-2.8,15L51.6,87.2"/>
<path class="st6" d="M70.8,43.2c0,0,7-17.4,35.1-25.8s1.4-6.1,1.4-6.1L76.9,23L65.2,34.7L60,44.1L70.8,43.2"/>
<path class="st6" d="M56.8,83.9c0,0-9.8-32.8,27.7-37.5l-1.4-5.7l-25.8,6.1l-7.5,24.4l1.9,16L56.8,83.9"/>
<path class="st7" d="M71.7,127.5l6.2-6c0,0,2.8,0.3,3.3,3.6c0.5,3.3,1.9,32.8,22,48.7c1.9,1.5-15-2.4-15-2.4l-15-23.4"/>
<path class="st7" d="M158,118.6c0,0,1.1-14.2,5-13.1s3.9,5,3.9,5S157.5,116.4,158,118.6"/>
<path class="st7" d="M196.9,66.6c0,0-7.7,1.6-8.4,8.4c-0.7,6.8,8.4,1.4,9.8,0.9"/>
<path class="st7" d="M140.2,67.1c0,0-10.3,1.4-10.3,7.9s11.7,6.1,15,3.3"/>
<path class="st7" d="M76.5,97.5c0,0-17.8-10.8-19.6-0.5c-1.9,10.3-6.1,17.8,2.8,28.6l-6.1-1.9l-5.7-14.5L46,95.2l10.8-11.2l12.2,0.9
	l7,5.7L76.5,97.5"/>
<path class="st7" d="M84.9,68c0,0,7.9-41.3,48.2-49.2c33.1-6.5,50.6,1.4,57.2,8.9c0,0-29.6-35.1-57.6-24.4
	c-28.1,10.8-48.7,30.5-48.2,43.1C85.2,68,84.9,68,84.9,68"/>
<path class="st7" d="M193.6,32.3c0,0-13.6-0.5-14.1,11.7c0,0,0,1.9,0.9,3.8c0,0,10.8-12.2,17.4-5.7"/>
<path class="st7" d="M134.2,49.1c0,0-2.4-18.7-18.3-7.8c-10.3,7-9.3,16.9-7.5,18.8c1.9,1.9,1.4,5.7,2.8,3.1c1.4-2.6,1-11,6.2-13.4
	C122.3,47.3,130.9,44.8,134.2,49.1"/>
<path class="st8" d="M90.1,175.7L46,195.4c0,0,18.3,72.6,8.9,95.2l-6.5-2.4l-0.5-27.7l-12.2-52.4l-5.2-14.5l45.9-31L90.1,175.7"/>
<path class="st8" d="M94.6,215.9l6.3,7.6v28.1h-7.4c0,0-0.9-19.6-0.9-22c0-2.4,0.9-10.8,0.9-10.8"/>
<path class="st8" d="M94.8,255.9l-21.1,0.9l6.1,4.3l15,2.4"/>
<path class="st4" d="M166.9,251.2l17.4-0.5l4.3,43.1l-17.8,2.4L166.9,251.2"/>
<path class="st4" d="M171.6,251.2l26.2-1.4c0,0,10.8-27.2,10.8-28.6c0-1.4,9.3-39.4,9.3-39.4l-21.1-22l-4.3-3.8l-11.2,11.2v43.6
	L171.6,251.2"/>
<path class="st8" d="M183.3,248l-16.4,3.3l2.4,13.1c6.1,2.8,16.4-4.7,16.4-4.7"/>
<path class="st8" d="M183.8,165.9l32.8,24.4l0.9-11.2l-24.8-22.9L183.8,165.9"/>
<path class="st9" d="M111,343.5l-9.7-39.4l-4.9-29.1l-0.8-21.5l44-2.4h27.3l-2.5,49.2l4.3,38l-0.5,7l-35.6,2.8L111,343.5"/>
<path class="st6" d="M160.8,250.7c0,0-2.4,48.7,4.7,83.4c0,0-14.1,8.9-34.6,11.2l39.4-1.4l4.7-2.8l-5.7-76.8l-1.5-16.5"/>
<path class="st9" d="M189.2,290.1l18.3-5.2l34.6-1.9l5.2-16l-9.3-27.7l-10.8-1.4l-15,4.7l-14.3,7l-7.6-1.4l-6,2.4"/>
<path class="st6" d="M188.9,280.7c0,0,12.2-5.7,14.1-5.2l-5.2-25.8l6.1-2.4c0,0,4.3,24.4,4.3,27.2c0,0,26.2,1.4,28.6,1.4
	c0,0,5.7-10.8,4.3-22l5.2,15l0.5,8.4l-7.5,11.2l-8.4,1.9l-14.1-0.5l-4.7-6.1l-16.4,2.4l-5.2,1.9"/>
<path class="st9" d="M170.5,247.5l-10.3-26.2l-10.8-15.5c0,0,2.4-6.5,5.7-6.5h10.8l10.3,3.8l-0.9,17.4L170.5,247.5"/>
<path class="st6" d="M172.6,238.5c0,0-13.1-25.3-13.1-29.1c0,0,2.4-5.7,5.7-4.3c3.3,1.4,10.3,5.2,10.3,5.2v-8.9l-16-3.3l-10.8,1.4
	l18.3,43.3l3.8,0.5"/>
<path class="st9" d="M115.2,176.7l-13-1.4L90,171.6v4.3l6,6.5l18.8,8.4"/>
<path class="st6" d="M94.3,178.1c0,0,14.5,6.1,19.2,4.7l0.5,5.7l-13.1-2.8L93,180L94.3,178.1"/>
<path class="st0" d="M189.2,200.8c-7.9-0.2-15.2-1.2-21.4-3c0.4-2.6-0.4-5.1,0.3-6.9c1.8-1.3,4.7-1.3,7.3-1.6
	c-2.3-1.1-5.6-1.6-8.1-0.9c-0.1-1.8-0.9-2.9-1.4-4.3c4.5-1.6,15-12,20.9-8.6c2.9,1.7,4.1,11,4.3,15.7
	C191.3,195,190.7,198.7,189.2,200.8"/>
<path class="st10" d="M189.2,200.8c-7.9-0.2-15.2-1.2-21.4-3c0.4-2.6-0.4-5.1,0.3-6.9c1.8-1.3,4.7-1.3,7.3-1.6
	c-2.3-1.1-5.6-1.6-8.1-0.9c-0.1-1.8-0.9-2.9-1.4-4.3c4.5-1.6,15-12,20.9-8.6c2.9,1.7,4.1,11,4.3,15.7
	C191.3,195,190.7,198.7,189.2,200.8L189.2,200.8z"/>
<path class="st0" d="M151.2,187.8c0,0.6,0,1.2-0.1,1.8c-2.5,1.6-6.4,1.6-9.2,3c4,0.2,7.1,1.2,9.9,2.5c-0.1,1.5-0.1,3.1-0.2,4.6
	c-4.6,3.1-8.7,7.7-14.1,10.7c-2.6,1.4-11.4,5-14.1,4.3c-1.5-0.4-1.7-2.3-2.3-4.1c-1.3-3.8-4.3-9.9-4.6-15.7
	c-0.3-7.2-1.1-19.4,6.7-18c6.4,1.2,13.7,4.1,18.6,6.7C145,185.5,146.7,187.4,151.2,187.8"/>
<path class="st10" d="M151.2,187.8c0,0.6,0,1.2-0.1,1.8c-2.5,1.6-6.4,1.6-9.2,3c4,0.2,7.1,1.2,9.9,2.5c-0.1,1.5-0.1,3.1-0.2,4.6
	c-4.6,3.1-8.7,7.7-14.1,10.7c-2.6,1.4-11.4,5-14.1,4.3c-1.5-0.4-1.7-2.3-2.3-4.1c-1.3-3.8-4.3-9.9-4.6-15.7
	c-0.3-7.2-1.1-19.4,6.7-18c6.4,1.2,13.7,4.1,18.6,6.7C145,185.5,146.7,187.4,151.2,187.8L151.2,187.8z"/>
<path class="st0" d="M155.7,196.5c-0.7-4-1.5-5.1-1.2-8.5C165.1,180.9,167,200,155.7,196.5"/>
<path class="st10" d="M155.7,196.5c-0.7-4-1.5-5.1-1.2-8.5C165.1,180.9,167,200,155.7,196.5L155.7,196.5z"/>
<path class="st1" d="M171,199.6c0,0-3.3-4.7-0.9-6.1s4.7,0,6.1-2.4s0-3.8,0.5-6.5c0.5-2.8,2.8-3.3,5.2-3.8s8.9-1.4,9.8,0.9l-2.8-8.4
	l-5.7-1.9l-17.8,10.3l-0.9,5.2v10.3"/>
<path class="st1" d="M121.7,215.1c-0.6-7.3-1.2-14.6-1.8-21.9c-1-10.9,2.6-9,12.1-9c1.5,0,8.9,1.7,9.4,2.8c2.6,5.3-4.3,4.1,3,8
	c6.1,3.3,16.9-2,14.4-9.4c-1.4-1.7-7.1-0.5-9.2-1.6c-3.7-1.9-7.3-3.8-11-5.7c-4.7-2.4-15.4-6-20.3-2.6c-12.6,8.5,0.8,30,5.3,38.9"/>
<path class="st2" d="M134.2,49.1c-12.8-3-19.2,5.4-23,14c-3.5-0.8-2.1-5.6-1.2-7.9c2.3-6.3,11.5-14.7,19.1-13.5
	C132.2,42.1,136.5,45,134.2,49.1"/>
<path class="st2" d="M196.4,63.6h0.6c2.9,6,5.4,12.3,9,17.7c-2.5,5.8-18.5,10.7-18.3,0.6c3.5-1.5,9.4-0.3,12.5-2.3
	C198.4,74.7,196,70.6,196.4,63.6"/>
<path class="st2" d="M140.6,63.8c2.8,5.1,3.7,10.3,7.5,14.1c1.8,1.7,5.2,3.8,3.5,8.5c-0.4,1.1-3.3,3.6-5,4.1
	c-6.1,1.8-20.2,0.4-15.5-7.2c5.1,0.2,11.8,3.3,15.6-0.4C143.9,78.3,138.7,69.2,140.6,63.8"/>
<path class="st2" d="M194.1,114.8c-9.1,5.9-19.3,12.3-34.4,10.8c-3.2-2.8-4.5-9-1.3-13.1c1.6,2.8,0.6,7.9,5.2,8.7
	c8.5,1.5,18.5-5.3,24.6-7.5c3.8-6.4-0.3-8.7-3.8-12.9c-7-8.4-16.4-19-16.1-31.6c2.9-2.1,3.1,3.2,3.5,4.1
	c3.7,8.5,12.9,19.5,19.5,26.9c1.7,1.8,4.4,3.6,4.7,4.8C196.9,108.4,193.7,112.5,194.1,114.8"/>
<path class="st2" d="M73.2,108.7c-2.9-1.7-3.6-8.8-6.9-9c-4.9-0.3-4,9.3-4,15c-3.3-3-3.9-12.3-1.5-17.1c-2.8-1.4-4,1.5-5.6,2.5
	C57.4,85.6,76.4,93.4,73.2,108.7"/>
<path class="st2" d="M199.8,120.9c-4.3,8.1-10.3,17.1-22.8,17.4c-0.3-2.6-0.5-6.6,0-8.2C186.6,129,192.6,124.1,199.8,120.9"/>
<path class="st2" d="M139.9,126.1c7.9,4.2,22.6,4.7,33.5,4.4c0.6,2.4,0.6,5.4,0.6,8.2C160,139.3,143.6,135.8,139.9,126.1"/>
<path class="st2" d="M138.4,133.9c5.6,13.9,24.5,12.3,40.5,11.9c-0.7,1.8-2.2,4-4.2,4.7c-5.2,2.1-19.2,3.7-26.4-0.1
	c-4.5-2.4-7.4-7.8-9.9-11C137.3,137.8,131.4,134,138.4,133.9"/>
<path class="st11" d="M193.4,210.4c-6.4,11.1-12.7,22.5-20.3,32.2c3.2-9.4,4.6-25.3,5.1-37.4C184.9,202,190.6,205.9,193.4,210.4"/>
<path class="st2" d="M228.2,250.2c-7.2,1.5-12.3,8.5-19.4,8C212.7,252.8,219.5,250.4,228.2,250.2"/>
<path class="st2" d="M231.4,261.6c-6,0.6-12.9,1.6-18.9,1.1C215.4,258.3,226.3,259.9,231.4,261.6"/>
<path class="st2" d="M233.5,271.4c-6.6,0.1-14.9,0-21.2-0.5C216,266.8,229.2,269.4,233.5,271.4"/>
<path class="st6" d="M180.9,298.2c1,8.3,4.3,16.8,3.9,25.9c-3.7,1.2-5.8,2.3-10.7,2.3c-0.3-7.7-1.4-19.6-1.1-27.1
	C175.3,299.5,178.9,297.6,180.9,298.2"/>
<path class="st3" d="M170.2,175.1c-3.4,2.2-6.2,4.9-9.4,7.2c-7.1,0.4-11-0.5-16.2-4.6c0.1-0.3,0.6-0.2,0.6-0.6
	C152.8,180.6,162.5,175.8,170.2,175.1"/>
<path class="st11" d="M130.3,227c2.1-9,10.3-13.8,17.8-18.8c7.6,9.7,12.3,22.2,17.5,34.3C153.3,238.9,140.9,233.1,130.3,227"/>
<path class="st2" d="M172.9,299.4c-0.3,7.4,0.7,19.2,1.1,27.1c5,0,7-1.1,10.7-2.3c0.4-9.1-2.9-17.6-3.9-25.9
	C178.9,297.6,175.3,299.5,172.9,299.4L172.9,299.4z M96.3,257.3c3.3,29.9,7.9,54.9,16.6,81.4c19.2,5.9,42.2,6.4,59.1,1.1
	c-3.1-14.9-1.8-33-3.6-49c-1.4-12-0.7-24-2.6-36.2C145.4,250.2,116.4,253.5,96.3,257.3L96.3,257.3z M170.8,254.7
	c-0.2,12.8,0.6,25.5,1.6,38.3c5-0.7,8.2-1.2,12.8-2.3c-1.5-12.3-1.3-26.3-4.4-37.2C177.3,253.6,174.2,253.5,170.8,254.7L170.8,254.7
	z M195.7,252.6c-2.4-0.5-5.1,0-7.2,0c1.1,10.4,3.6,21.9,4.5,32.9c3.5,0.1,5.4-1.6,8.2-2.1C201.3,273.9,200.3,260.6,195.7,252.6
	L195.7,252.6L195.7,252.6z M233.5,287.2c7.3-1.8,11.9-10.7,9.8-19.9c-1.4-6.2-3.8-17.9-6.4-21.8c-1.9-2.9-7.1-6.7-11.4-4.1
	c-6.8,4.4-18.9,5.7-23.8,10.9c2.5,8.3,3.3,19.6,4.3,30.2c8.5,0.5,19-2.4,26.1,0.7c-5,1.6-11.3,1.6-15.6,4
	C220,288.7,228.1,288.4,233.5,287.2L233.5,287.2L233.5,287.2z M165.4,242.6c-5.2-12.1-9.8-24.6-17.5-34.3c-7.4,5-15.6,9.7-17.8,18.8
	C140.9,233.1,153.3,238.9,165.4,242.6L165.4,242.6z M178.1,205.2c-0.5,12.1-1.9,28-5.1,37.4c7.6-9.8,13.9-21.1,20.3-32.2
	C190.6,205.9,184.9,202,178.1,205.2L178.1,205.2z M163.7,200.1c-2.9-0.3-5.4,3.4-9.1,1.8c-0.9,1-1.7,2-2.6,3
	c8.3,10.1,12.2,24.4,18.7,36.2c3.5-11.4,3.1-23.8,3.9-36.2C169.8,205.1,167.1,200.4,163.7,200.1L163.7,200.1z M154.5,187.9
	c-0.3,3.5,0.5,4.6,1.2,8.5C167,200,165.1,180.9,154.5,187.9L154.5,187.9z M141.9,183.8c-4.9-2.7-12.2-5.6-18.6-6.7
	c-7.8-1.5-7,10.7-6.7,18c0.3,5.8,3.3,11.8,4.6,15.7c0.6,1.8,0.8,3.7,2.3,4.1c2.7,0.6,11.6-2.9,14.1-4.3c5.4-2.9,9.5-7.5,14.1-10.7
	c0.1-1.5,0.1-3.1,0.2-4.6c-2.8-1.4-5.9-2.3-9.9-2.5c2.7-1.4,6.7-1.4,9.2-3c0-0.6,0-1.2,0.1-1.8C146.7,187.4,145,185.5,141.9,183.8
	L141.9,183.8z M95.3,175.3c-4.1,4.2,11.4,9.7,16.3,10c0-2.6,1.5-5.1,1.2-6.9C106.9,177.4,99.2,178.1,95.3,175.3L95.3,175.3z
	 M145.3,177.2c0,0.4-0.5,0.3-0.6,0.6c5.3,4.1,9.1,5,16.2,4.6c3.2-2.3,6.1-5.1,9.4-7.2C162.5,175.8,152.8,180.6,145.3,177.2
	L145.3,177.2z M191.1,191.1c-0.2-4.6-1.4-14-4.3-15.7c-6-3.5-16.5,7-20.9,8.6c0.5,1.4,1.3,2.5,1.4,4.3c2.7-0.7,5.9-0.2,8.1,0.9
	c-2.7,0.3-5.6,0.3-7.3,1.6c-0.6,1.9,0.2,4.4-0.3,6.9c6.3,1.8,13.5,2.7,21.4,3C190.7,198.7,191.3,195,191.1,191.1L191.1,191.1z
	 M88.4,179.3c-1.3-0.9-9.9-12.1-11.1-11.6c-15.6,6.2-30.2,16.8-43.2,26.9c12.4,26.7,17.5,59.3,18.4,90.8c14.2,6.6,26.7,16.3,46,17.3
	c-2.3-15.8-4.3-30-5.6-44.8c-4.9-2.1-11.8,0.1-16.4-0.6c0-5.5,6.9-2.4,7.5-6.1c0.4-2.8-3.9-3-2.5-7.3c3.6,1.3,5.5,4.2,9.2,5.3
	c3.5-7.5,0-20.9,0.5-27.3c0.1-1.2,0.6-6.5,3.3-5.7c2.4,0.8-0.1,14.4,0.1,20.3c0.2,5.6-0.7,10.8,1.6,14.3c18.7-2.6,37.6-4.2,57.8-4.8
	c-4.5-1.9-9.7-3.7-15.5-6.9c-3.2-1.8-13-5.5-13.9-8.4c-1.5-4.8,3.8-7.2,4.7-11.3c-9.4,5.2-11.2-5-13.5-12c-2-6.4-3.2-11.3-3.7-15
	C104.1,188.1,95.4,184.3,88.4,179.3L88.4,179.3L88.4,179.3z M182.9,169c13-6.3,15.4,23.5,10.2,33.1c0.8,2.9,3.5,4,4.6,6.5
	c-7.2,13-15.3,25.1-22.7,37.9c5.5-3.5,13.4-0.6,19.8-3.2c2.4-0.9,4.1-6.4,5.9-10.7c5-11.9,10.1-27,12.4-38.3c0.5-2.6,2-8.2,1.6-10.5
	c-0.6-4.2-6.2-7.2-9-9.7c-5.3-4.8-8.5-8.8-14.1-13.3C189.4,164.1,184.7,166.3,182.9,169L182.9,169L182.9,169z M58.7,53.8
	c-6.2,6.8-4.9,19.5-4.2,28.7c11.2-7,26,0.6,25.9,12.5c5.4-0.1,2-6.6,1-10.9c-3.2-13.8,5.4-28.7,0.4-41.3
	C72.2,43.6,64.4,47.4,58.7,53.8L58.7,53.8L58.7,53.8z M103,14.2c-14,4-32,14.2-37.7,26.8c4.5-0.7,7.5-2.9,11.9-3.2
	c1.7-0.1,3.9,0.7,5.8,0.2c3.8-1,7-9.5,9.9-12.7c2.8-3.1,6.2-4.5,8.4-7.2c1.5-0.7,3.7-0.7,3.8-2.9C104.5,14.5,103.8,14,103,14.2
	L103,14.2z M175.9,18c-14.6-8.2-39.2-14.4-54.7-6.6c-12.5,6.3-29.4,16.6-35.1,29.6C91.5,53.5,84.5,65,84,77.8
	c-0.2,6.8,3.2,12.7,3.5,20.1c-1.9,3.1-7.4,3.4-11.3,3.2c-1.3-6.5-3.6-13.9-10.3-14.7c-9.5-1.1-16.6,6.8-17,15.1
	c-0.5,9.7,7.4,25.8,18.8,24.7c4.4-0.4,5.5-4.8,10.2-4.8c2.6,5.2-4,6.7-4.7,10.4c-0.2,1,0.5,4.7,1,6.4c2.1,8.4,6.6,19.4,11.1,25.9
	c5.8,8.2,17,9.4,29.1,10.2c2.2-4.7,10.1-4.3,15.3-3.1c-6.3-2.5-12-8.4-16.8-13.7c-5.5-6.1-11-12.5-11.3-20.4
	c10.4,14.4,19,27,37.8,33.3c14.3,4.8,31-2.2,42-9.9c4.6-3.2,7.2-8.3,10.5-12.9c12.1-17.5,17.8-42.3,16.6-66.4
	c-0.5-9.9-0.5-19.8-3.9-26.5c-3.5-6.9-15.3-13.3-22.2-6.9c-1.3-6.8,5.8-11,14-8.5C190.5,31.8,184.4,22.7,175.9,18L175.9,18L175.9,18
	z M203.1,242.3c11.4-5.7,32.6-15.2,39.7,0c2.7,5.7,5.8,15.1,7,20.9c1.9,8.1-2.1,25.4-10.5,28.1c-7.4,2.4-16.1,2.3-25,0.5
	c-1.1-0.9-2.2-2.4-3.1-4c-6.4-0.2-12.4,0.3-17.4,3c0.5,4.8-2.7,5.5-5.8,6.4c-2.2,8.8,4.5,20.3,2.9,28.3c-1.1,5.8-8.1,6.6-13.3,7.6
	c-0.2,3.2,0.2,5.9,0.6,8.5c-1.2,4.4-6.4,6.8-11.5,7.4c-16.6,2-41.7,2.9-57.6-2.9c-4.5-10.9-7.9-24.1-11.6-36.5
	c-15.5,1.7-28.1-6.6-39.9-12.2c-4.1-1.9-9.7-3-11.3-6.3c-1.5-3.2-0.9-9.2-1.3-14.9c-0.9-14.6-1.8-28.7-5.6-43.6
	c-1.7-6.7-4.8-12.6-6.8-19.1c-2-6-5.4-13.4-6.3-19.3c-1.3-8.8,7-9.3,12.3-13.2c8.2-6,14.7-9.2,23.6-14.6c2.7-1.6,10.6-5.6,11.5-7.4
	c1.8-3.7-3.1-8.8-4.4-11.7c-2.1-4.6-3.2-8.4-3.5-12.9c-7.4-1.2-13.2-5.7-16.6-10.6c-5.7-8.3-9.6-23.7-4.7-35.3
	c0.4-0.9,2.3-2.8,2.6-4.2c0.6-2.8-1.1-6.4-1.2-9.4C45.7,59.9,48.8,46.8,59,42.3c4.2-16.6,19.1-22,33-30.3c5.3-3.1,11-5.1,17-7.2
	c21.3-7.8,54.2-6.4,71.9,7c7.5,5.7,19.5,17.7,23.8,26.4c11.4,22.9,10.5,61.3,2.6,89.3c-1.1,3.8-2.6,9.2-4.8,13.8
	c-1.5,3.2-6.2,9.4-5.7,12.2c0.6,2.9,10.7,10.5,12.9,12.6c3.9,3.8,11.3,8.7,11.9,13.5c0.7,5.1-2.2,12-3.7,16.9
	C213.3,212.7,208.6,227.7,203.1,242.3L203.1,242.3z"/>
<path class="st7" d="M127.2,129.6c0.6-0.8,4-2.1,8.7,0.2c0,0-5.7,0.9-5.2,10.3l-2.4-0.5C128.5,139.7,126,131.2,127.2,129.6"/>
<path class="st12" d="M168.3,210.2c0,1.4-1.2,2.6-2.6,2.6s-2.6-1.2-2.6-2.6s1.2-2.6,2.6-2.6C167.2,207.6,168.3,208.8,168.3,210.2"/>
<path class="st12" d="M170.9,222.2c0,1.4-1.2,2.6-2.6,2.6s-2.6-1.2-2.6-2.6c0-1.4,1.2-2.6,2.6-2.6
	C169.8,219.6,170.9,220.7,170.9,222.2"/>
</svg>
