<?xml version="1.0" encoding="utf-8"?>
<!-- Generator: Adobe Illustrator 25.0.0, SVG Export Plug-In . SVG Version: 6.00 Build 0)  -->
<svg version="1.1"
	 id="svg2" xmlns:cc="http://creativecommons.org/ns#" xmlns:dc="http://purl.org/dc/elements/1.1/" xmlns:inkscape="http://www.inkscape.org/namespaces/inkscape" xmlns:rdf="http://www.w3.org/1999/02/22-rdf-syntax-ns#" xmlns:sodipodi="http://sodipodi.sourceforge.net/DTD/sodipodi-0.dtd" xmlns:svg="http://www.w3.org/2000/svg"
	 xmlns="http://www.w3.org/2000/svg" xmlns:xlink="http://www.w3.org/1999/xlink" x="0px" y="0px" viewBox="0 0 44.1 88.3"
	 style="enable-background:new 0 0 44.1 88.3;" xml:space="preserve">
<style type="text/css">
	.st0{fill:url(#path3212_1_);}
	.st1{fill:none;}
	.st2{fill:#BE202E;}
	.st3{opacity:0.35;fill:#BE202E;enable-background:new    ;}
	.st4{fill:url(#path3239_1_);}
	.st5{fill:url(#path3250_1_);}
	.st6{fill:url(#path3261_1_);}
	.st7{fill:url(#path3272_1_);}
	.st8{fill:url(#path3283_1_);}
	.st9{fill:url(#path3294_1_);}
	.st10{fill:url(#path3309_1_);}
	.st11{fill:url(#path3324_1_);}
	.st12{fill:url(#path3339_1_);}
</style>
<sodipodi:namedview  bordercolor="#666666" borderopacity="1.0" fit-margin-bottom="0" fit-margin-left="0" fit-margin-right="0" fit-margin-top="0" id="base" inkscape:current-layer="layer1" inkscape:cx="-887.52247" inkscape:cy="148.89888" inkscape:document-units="px" inkscape:guide-bbox="true" inkscape:pageopacity="0.0" inkscape:pageshadow="2" inkscape:window-height="713" inkscape:window-maximized="1" inkscape:window-width="1366" inkscape:window-x="0" inkscape:window-y="27" inkscape:zoom="0.49497475" pagecolor="#ffffff" showgrid="false" showguides="true">
	</sodipodi:namedview>
<g id="layer1" transform="translate(-433.58814,-211.85279)" inkscape:groupmode="layer" inkscape:label="Ebene 1">
	<g id="g3347" transform="matrix(0.61056696,0,0,0.61056696,-671.81995,122.75139)">
	</g>
	<g id="g3349" transform="matrix(0.61056696,0,0,0.61056696,-671.81995,122.75139)">
	</g>
	<g id="g3351" transform="matrix(0.61056696,0,0,0.61056696,-671.81995,122.75139)">
	</g>
	<g id="g3353" transform="matrix(0.61056696,0,0,0.61056696,-671.81995,122.75139)">
	</g>
	<g id="g3355" transform="matrix(0.61056696,0,0,0.61056696,-671.81995,122.75139)">
	</g>
	<g id="g3357" transform="matrix(0.61056696,0,0,0.61056696,-671.81995,122.75139)">
	</g>
	<g id="g3203" transform="matrix(0.16486497,0,0,0.16486497,427.12543,209.04631)">
		
			<linearGradient id="path3212_1_" gradientUnits="userSpaceOnUse" x1="-52788.5078" y1="-16185.3281" x2="-52712.8633" y2="-16273.7803" gradientTransform="matrix(6.967194e-02 -0.1494 -0.1494 -6.967194e-02 1500.6715 -8952.7598)">
			<stop  offset="0" style="stop-color:#F69923"/>
			<stop  offset="0.3123" style="stop-color:#F79A23"/>
			<stop  offset="0.8383" style="stop-color:#E97826"/>
		</linearGradient>
		<path id="path3212" inkscape:connector-curvature="0" class="st0" d="M267.1,19.6c-8.4,5-22.4,19-39,39.3l15.3,28.9
			c10.7-15.4,21.7-29.2,32.7-41c0.8-0.9,1.3-1.4,1.3-1.4c-0.4,0.5-0.9,0.9-1.3,1.4c-3.6,3.9-14.4,16.5-30.7,41.6
			c15.7-0.8,39.8-4,59.5-7.4c5.9-32.8-5.7-47.8-5.7-47.8S284.4,9.3,267.1,19.6z"/>
		<path id="path3214" inkscape:connector-curvature="0" class="st1" d="M241.1,184.4c0.1,0,0.2,0,0.3-0.1l-2.2,0.2
			c-0.1,0.1-0.3,0.1-0.4,0.2C239.6,184.6,240.4,184.5,241.1,184.4z"/>
		<path id="path3216" inkscape:connector-curvature="0" class="st1" d="M225.5,236.1c-1.2,0.3-2.5,0.5-3.8,0.7
			C223,236.6,224.3,236.4,225.5,236.1z"/>
		<path id="path3218" inkscape:connector-curvature="0" class="st1" d="M119.3,352.2c0.2-0.4,0.3-0.9,0.5-1.3
			c3.4-8.9,6.7-17.5,10-26c3.7-9.4,7.4-18.6,11-27.5c3.8-9.3,7.6-18.4,11.3-27.1c3.9-9.2,7.7-18,11.5-26.5
			c3.1-6.9,6.1-13.6,9.1-20.1c1-2.2,2-4.3,3-6.4c2-4.2,3.9-8.3,5.8-12.3c1.8-3.7,3.5-7.3,5.2-10.9c0.6-1.2,1.2-2.4,1.7-3.5
			c0.1-0.2,0.2-0.4,0.3-0.6l-1.9,0.2l-1.5-2.9c-0.1,0.3-0.3,0.6-0.4,0.9c-2.7,5.3-5.4,10.7-8,16.2c-1.5,3.1-3,6.3-4.6,9.5
			c-4.2,8.8-8.3,17.6-12.3,26.6c-4.1,9-8.1,18.1-12,27.1c-3.9,8.9-7.6,17.8-11.3,26.7c-3.7,8.9-7.3,17.7-10.8,26.5
			c-3.7,9.2-7.3,18.3-10.7,27.3c-0.8,2-1.6,4.1-2.3,6.1c-2.8,7.3-5.5,14.4-8.1,21.5l2.4,4.7l2.1-0.2c0.1-0.2,0.2-0.4,0.2-0.6
			C112.6,370.1,116,361,119.3,352.2z"/>
		<path id="path3220" inkscape:connector-curvature="0" class="st1" d="M220.7,236.9L220.7,236.9L220.7,236.9L220.7,236.9z"/>
		<path id="path3222" inkscape:connector-curvature="0" class="st2" d="M215.6,262.2c-2,0.4-4,0.7-6,1l0,0c1-0.1,2.1-0.3,3.1-0.5
			C213.7,262.6,214.7,262.4,215.6,262.2z"/>
		<path id="path3224" inkscape:connector-curvature="0" class="st3" d="M215.6,262.2c-2,0.4-4,0.7-6,1l0,0c1-0.1,2.1-0.3,3.1-0.5
			C213.7,262.6,214.7,262.4,215.6,262.2z"/>
		<path id="path3226" inkscape:connector-curvature="0" class="st2" d="M220.8,236.9L220.8,236.9
			C220.7,236.9,220.7,236.9,220.8,236.9c0.3,0,0.6-0.1,0.9-0.1c1.3-0.2,2.6-0.4,3.8-0.7C224,236.4,222.4,236.6,220.8,236.9
			L220.8,236.9L220.8,236.9z"/>
		<path id="path3228" inkscape:connector-curvature="0" class="st3" d="M220.8,236.9L220.8,236.9
			C220.7,236.9,220.7,236.9,220.8,236.9c0.3,0,0.6-0.1,0.9-0.1c1.3-0.2,2.6-0.4,3.8-0.7C224,236.4,222.4,236.6,220.8,236.9
			L220.8,236.9L220.8,236.9z"/>
		
			<linearGradient id="path3239_1_" gradientUnits="userSpaceOnUse" x1="-56184.1602" y1="-16124.6826" x2="-55644.4805" y2="-16124.6826" gradientTransform="matrix(6.967194e-02 -0.1494 -0.1494 -6.967194e-02 1500.6715 -8952.7598)">
			<stop  offset="0.3233" style="stop-color:#9E2064"/>
			<stop  offset="0.6302" style="stop-color:#C92037"/>
			<stop  offset="0.7514" style="stop-color:#CD2335"/>
			<stop  offset="1" style="stop-color:#E97826"/>
		</linearGradient>
		<path id="path3239" inkscape:connector-curvature="0" class="st4" d="M198.2,162.4c4.7-8.7,9.4-17.2,14.1-25.5
			c4.9-8.6,9.9-16.9,15-25c0.3-0.5,0.6-1,0.9-1.4c5-7.9,10-15.5,15.1-22.8L228,58.9c-1.1,1.4-2.3,2.8-3.5,4.3
			c-4.4,5.5-9,11.4-13.7,17.7c-5.3,7.1-10.7,14.6-16.3,22.5c-5.1,7.3-10.3,15-15.5,22.9c-4.4,6.8-8.8,13.7-13.2,20.8
			c-0.2,0.3-0.3,0.5-0.5,0.8l19.9,39.3C189.6,178.9,193.9,170.6,198.2,162.4z"/>
		
			<linearGradient id="path3250_1_" gradientUnits="userSpaceOnUse" x1="-55789.0117" y1="-16453.6582" x2="-55467.4141" y2="-16453.6582" gradientTransform="matrix(6.967194e-02 -0.1494 -0.1494 -6.967194e-02 1500.6715 -8952.7598)">
			<stop  offset="0" style="stop-color:#282662"/>
			<stop  offset="9.548389e-02" style="stop-color:#662E8D"/>
			<stop  offset="0.7882" style="stop-color:#9F2064"/>
			<stop  offset="0.9487" style="stop-color:#CD2032"/>
		</linearGradient>
		<path id="path3250" inkscape:connector-curvature="0" class="st5" d="M107.5,384.1c-2.6,7.2-5.3,14.6-7.9,22.2
			c0,0.1-0.1,0.2-0.1,0.3c-0.4,1.1-0.8,2.1-1.1,3.2c-1.8,5.1-3.3,9.7-6.9,20.1c5.9,2.7,10.6,9.7,15,17.7
			c-0.5-8.3-3.9-16.1-10.4-22.1c28.9,1.3,53.9-6,66.7-27.2c1.1-1.9,2.2-3.9,3.2-6c-5.9,7.4-13.1,10.6-26.8,9.8h-0.1h0.1
			c20.1-9,30.2-17.7,39.1-32c2.1-3.4,4.2-7.1,6.3-11.2c-17.6,18.1-38,23.2-59.5,19.3L109,380C108.5,381.4,108,382.7,107.5,384.1z"/>
		
			<linearGradient id="path3261_1_" gradientUnits="userSpaceOnUse" x1="-56000.3125" y1="-16094.4473" x2="-55460.6289" y2="-16094.4473" gradientTransform="matrix(6.967194e-02 -0.1494 -0.1494 -6.967194e-02 1500.6715 -8952.7598)">
			<stop  offset="0.3233" style="stop-color:#9E2064"/>
			<stop  offset="0.6302" style="stop-color:#C92037"/>
			<stop  offset="0.7514" style="stop-color:#CD2335"/>
			<stop  offset="1" style="stop-color:#E97826"/>
		</linearGradient>
		<path id="path3261" inkscape:connector-curvature="0" class="st6" d="M115,348c3.5-9,7.1-18.1,10.7-27.3
			c3.5-8.8,7.1-17.6,10.8-26.5s7.5-17.8,11.3-26.7c3.9-9.1,7.9-18.1,12-27.1c4-8.9,8.2-17.8,12.3-26.6c1.5-3.2,3-6.3,4.6-9.5
			c2.6-5.4,5.3-10.8,8-16.2c0.1-0.3,0.3-0.6,0.4-0.9L165.4,148c-0.3,0.5-0.6,1.1-1,1.6c-4.6,7.6-9.3,15.3-13.8,23.2
			c-4.6,8-9.1,16.1-13.5,24.4c-3.7,7-7.3,14-10.9,21.1c-0.7,1.4-1.4,2.9-2.1,4.3c-4.3,8.9-8.3,17.6-11.8,25.9
			c-4,9.4-7.5,18.4-10.6,26.9c-2,5.6-3.9,11-5.6,16.2c-1.4,4.4-2.7,8.9-4,13.3c-3,10.4-5.5,20.8-7.6,31.2l20,39.5
			c2.6-7.1,5.4-14.2,8.1-21.5C113.4,352.1,114.2,350.1,115,348z"/>
		
			<linearGradient id="path3272_1_" gradientUnits="userSpaceOnUse" x1="-55761.5664" y1="-16139.2949" x2="-55477.9492" y2="-16139.2949" gradientTransform="matrix(6.967194e-02 -0.1494 -0.1494 -6.967194e-02 1500.6715 -8952.7598)">
			<stop  offset="0" style="stop-color:#282662"/>
			<stop  offset="9.548389e-02" style="stop-color:#662E8D"/>
			<stop  offset="0.7882" style="stop-color:#9F2064"/>
			<stop  offset="0.9487" style="stop-color:#CD2032"/>
		</linearGradient>
		<path id="path3272" inkscape:connector-curvature="0" class="st7" d="M84.2,337.5c-2.5,12.6-4.3,25.2-5.2,37.8
			c0,0.4-0.1,0.9-0.1,1.3c-6.2-10-23-19.8-22.9-19.7c12,17.4,21.1,34.6,22.4,51.5c-6.4,1.3-15.2-0.6-25.3-4.3
			c10.6,9.7,18.5,12.4,21.6,13.1c-9.7,0.6-19.8,7.3-30,15c14.9-6.1,27-8.5,35.6-6.5c-13.7,38.7-27.4,81.5-41.1,126.9
			c4.2-1.2,6.7-4.1,8.1-7.9c2.4-8.2,18.7-62.2,44.1-133.1c0.7-2,1.5-4,2.2-6.1c0.2-0.6,0.4-1.1,0.6-1.7c2.7-7.4,5.5-15,8.4-22.8
			c0.7-1.8,1.3-3.5,2-5.3v-0.1l-20-39.5C84.4,336.6,84.3,337,84.2,337.5L84.2,337.5z"/>
		
			<linearGradient id="path3283_1_" gradientUnits="userSpaceOnUse" x1="-56000.3125" y1="-16433.207" x2="-55460.6289" y2="-16433.207" gradientTransform="matrix(6.967194e-02 -0.1494 -0.1494 -6.967194e-02 1500.6715 -8952.7598)">
			<stop  offset="0.3233" style="stop-color:#9E2064"/>
			<stop  offset="0.6302" style="stop-color:#C92037"/>
			<stop  offset="0.7514" style="stop-color:#CD2335"/>
			<stop  offset="1" style="stop-color:#E97826"/>
		</linearGradient>
		<path id="path3283" inkscape:connector-curvature="0" class="st8" d="M188.4,190.6c-0.6,1.2-1.1,2.3-1.7,3.5
			c-1.7,3.6-3.5,7.2-5.2,10.9c-1.9,4-3.8,8.1-5.8,12.3c-1,2.1-2,4.2-3,6.4c-3,6.5-6,13.2-9.1,20.1c-3.8,8.5-7.6,17.3-11.5,26.5
			c-3.7,8.7-7.5,17.8-11.3,27.1c-3.6,8.9-7.3,18-11,27.5c-3.3,8.4-6.6,17.1-10,26c-0.2,0.4-0.3,0.9-0.5,1.3
			c-3.3,8.8-6.7,17.9-10.1,27.2c-0.1,0.2-0.2,0.4-0.2,0.6l16.1-1.8c-0.3-0.1-0.6-0.1-1-0.2c19.3-2.4,44.9-16.8,61.4-34.6
			c7.6-8.2,14.5-17.8,20.9-29.1c4.8-8.4,9.2-17.7,13.5-28.1c3.7-9,7.3-18.8,10.7-29.4c-4.4,2.3-9.5,4-15.1,5.2c-1,0.2-2,0.4-3,0.6
			s-2,0.3-3.1,0.5l0,0l0,0l0,0c18-6.9,29.3-20.2,37.5-36.6c-4.7,3.2-12.4,7.4-21.6,9.5c-1.2,0.3-2.5,0.5-3.8,0.7
			c-0.3,0-0.6,0.1-1,0.1l0,0l0,0l0,0l0,0l0,0c6.2-2.6,11.5-5.5,16.1-9c1-0.7,1.9-1.5,2.8-2.3c1.4-1.2,2.7-2.5,4-3.8
			c0.8-0.9,1.6-1.7,2.4-2.6c1.8-2.1,3.5-4.4,5-6.9c0.5-0.8,1-1.5,1.4-2.3c0.6-1.2,1.2-2.3,1.7-3.4c2.5-5,4.5-9.5,6.1-13.5
			c0.8-2,1.5-3.8,2.1-5.5c0.2-0.7,0.5-1.3,0.7-2c0.6-1.9,1.2-3.6,1.6-5.1c0.6-2.2,1-4,1.2-5.3l0,0l0,0c-0.6,0.5-1.3,1-2.1,1.4
			c-5.4,3.2-14.7,6.2-22.2,7.6l14.8-1.6l-14.8,1.6c-0.1,0-0.2,0-0.3,0.1c-0.7,0.1-1.5,0.2-2.3,0.4c0.1-0.1,0.3-0.1,0.4-0.2
			l-50.6,5.5C188.6,190.3,188.5,190.5,188.4,190.6z"/>
		
			<linearGradient id="path3294_1_" gradientUnits="userSpaceOnUse" x1="-56203.3711" y1="-16416.7891" x2="-55663.6914" y2="-16416.7891" gradientTransform="matrix(6.967194e-02 -0.1494 -0.1494 -6.967194e-02 1500.6715 -8952.7598)">
			<stop  offset="0.3233" style="stop-color:#9E2064"/>
			<stop  offset="0.6302" style="stop-color:#C92037"/>
			<stop  offset="0.7514" style="stop-color:#CD2335"/>
			<stop  offset="1" style="stop-color:#E97826"/>
		</linearGradient>
		<path id="path3294" inkscape:connector-curvature="0" class="st9" d="M245.4,88.4c-4.5,6.9-9.4,14.8-14.7,23.6
			c-0.3,0.5-0.6,0.9-0.8,1.4c-4.6,7.7-9.4,16.1-14.5,25.4c-4.4,8-9,16.5-13.8,25.8c-4.2,8-8.4,16.5-12.9,25.5l50.6-5.5
			c14.7-6.8,21.3-12.9,27.7-21.8c1.7-2.4,3.4-5,5.1-7.7c5.2-8.1,10.3-17,14.8-25.9c4.4-8.6,8.3-17.1,11.2-24.7
			c1.9-4.9,3.4-9.4,4.5-13.4c0.9-3.5,1.6-6.8,2.2-10C285.2,84.4,261.1,87.6,245.4,88.4z"/>
		<path id="path3296" inkscape:connector-curvature="0" class="st2" d="M212.7,262.8c-1,0.2-2,0.3-3.1,0.5l0,0
			C210.6,263.1,211.6,262.9,212.7,262.8z"/>
		<path id="path3298" inkscape:connector-curvature="0" class="st3" d="M212.7,262.8c-1,0.2-2,0.3-3.1,0.5l0,0
			C210.6,263.1,211.6,262.9,212.7,262.8z"/>
		
			<linearGradient id="path3309_1_" gradientUnits="userSpaceOnUse" x1="-56000.3125" y1="-16534.6719" x2="-55460.6289" y2="-16534.6719" gradientTransform="matrix(6.967194e-02 -0.1494 -0.1494 -6.967194e-02 1500.6715 -8952.7598)">
			<stop  offset="0.3233" style="stop-color:#9E2064"/>
			<stop  offset="0.6302" style="stop-color:#C92037"/>
			<stop  offset="0.7514" style="stop-color:#CD2335"/>
			<stop  offset="1" style="stop-color:#E97826"/>
		</linearGradient>
		<path id="path3309" inkscape:connector-curvature="0" class="st10" d="M212.7,262.8c-1,0.2-2,0.3-3.1,0.5l0,0
			C210.6,263.1,211.6,262.9,212.7,262.8z"/>
		<path id="path3311" inkscape:connector-curvature="0" class="st2" d="M220.7,236.9c0.3,0,0.6-0.1,1-0.1
			C221.4,236.8,221.1,236.9,220.7,236.9L220.7,236.9z"/>
		<path id="path3313" inkscape:connector-curvature="0" class="st3" d="M220.7,236.9c0.3,0,0.6-0.1,1-0.1
			C221.4,236.8,221.1,236.9,220.7,236.9L220.7,236.9z"/>
		
			<linearGradient id="path3324_1_" gradientUnits="userSpaceOnUse" x1="-56000.3125" y1="-16522.7598" x2="-55460.6289" y2="-16522.7598" gradientTransform="matrix(6.967194e-02 -0.1494 -0.1494 -6.967194e-02 1500.6715 -8952.7598)">
			<stop  offset="0.3233" style="stop-color:#9E2064"/>
			<stop  offset="0.6302" style="stop-color:#C92037"/>
			<stop  offset="0.7514" style="stop-color:#CD2335"/>
			<stop  offset="1" style="stop-color:#E97826"/>
		</linearGradient>
		<path id="path3324" inkscape:connector-curvature="0" class="st11" d="M220.7,236.9c0.3,0,0.6-0.1,1-0.1
			C221.4,236.8,221.1,236.9,220.7,236.9L220.7,236.9z"/>
		<path id="path3326" inkscape:connector-curvature="0" class="st2" d="M220.8,236.9L220.8,236.9L220.8,236.9L220.8,236.9
			L220.8,236.9L220.8,236.9z"/>
		<path id="path3328" inkscape:connector-curvature="0" class="st3" d="M220.8,236.9L220.8,236.9L220.8,236.9L220.8,236.9
			L220.8,236.9L220.8,236.9z"/>
		
			<linearGradient id="path3339_1_" gradientUnits="userSpaceOnUse" x1="-53799.9297" y1="-16520.6895" x2="-53799.9297" y2="-16520.6895" gradientTransform="matrix(6.967194e-02 -0.1494 -0.1494 -6.967194e-02 1500.6715 -8952.7598)">
			<stop  offset="0.3233" style="stop-color:#9E2064"/>
			<stop  offset="0.6302" style="stop-color:#C92037"/>
			<stop  offset="0.7514" style="stop-color:#CD2335"/>
			<stop  offset="1" style="stop-color:#E97826"/>
		</linearGradient>
		<path id="path3339" inkscape:connector-curvature="0" class="st12" d="M220.8,236.9L220.8,236.9L220.8,236.9L220.8,236.9
			L220.8,236.9L220.8,236.9z"/>
	</g>
	<g id="g8326" transform="translate(132.42046,222.12974)">
	</g>
	<g id="g8328" transform="translate(132.42046,222.12974)">
	</g>
	<g id="g8330" transform="translate(132.42046,222.12974)">
	</g>
	<g id="g8332" transform="translate(132.42046,222.12974)">
	</g>
	<g id="g8334" transform="translate(132.42046,222.12974)">
	</g>
	<g id="g8336" transform="translate(132.42046,222.12974)">
	</g>
</g>
</svg>
