<?xml version="1.0" encoding="utf-8"?>
<!-- Generator: Adobe Illustrator 25.0.0, SVG Export Plug-In . SVG Version: 6.00 Build 0)  -->
<svg version="1.1" id="Layer_1" xmlns="http://www.w3.org/2000/svg" xmlns:xlink="http://www.w3.org/1999/xlink" x="0px" y="0px"
	 viewBox="0 0 256 413" style="enable-background:new 0 0 256 413;" xml:space="preserve">
<style type="text/css">
	.st0{fill:#D6D6D6;}
</style>
<g>
	<path class="st0" d="M87.9,36.7c-4.5-4.6-10.9-7.4-18-7.4c-7,0-13.3,2.8-17.8,7.4H52c-4.5,4.5-7.4,10.9-7.4,17.9
		c0,7.1,2.8,13.4,7.4,17.9l0.1,0.1C56.7,77.2,63,80,70,80c7.1,0,13.4-2.8,18-7.3l0.1-0.1c4.6-4.5,7.4-10.8,7.4-17.9
		C95.4,47.6,92.6,41.3,87.9,36.7L87.9,36.7z M70,383.4c7.1,0,13.4-2.9,18-7.4l0.1-0.1c4.6-4.5,7.4-10.8,7.4-17.8
		c0-7.1-2.8-13.4-7.4-18h-0.1c-4.5-4.6-10.9-7.4-18-7.4c-7,0-13.3,2.8-17.8,7.4H52c-4.5,4.6-7.4,10.9-7.4,18c0,7,2.8,13.3,7.4,17.8
		l0.1,0.1C56.7,380.5,63,383.4,70,383.4z M208,306.6c6.3-1.6,12-5.7,15.4-11.8l0.5-0.9c3.1-5.8,3.6-12.4,2-18.3
		c-1.7-6.3-5.7-11.9-11.8-15.4l-0.4-0.2c-5.9-3.2-12.7-3.9-18.9-2.3c-6.3,1.6-12,5.8-15.4,11.8c-3.5,6-4.2,12.9-2.6,19.2
		c1.7,6.2,5.8,11.9,11.8,15.4h0C194.8,307.7,201.6,308.3,208,306.6z M96,180.4c-6.7-6.6-15.8-10.8-26-10.8
		c-10.1,0-19.3,4.2-25.9,10.8c-6.6,6.6-10.7,15.8-10.7,25.9c0,10.2,4.1,19.3,10.7,26C50.7,238.9,59.9,243,70,243
		c10.2,0,19.3-4.1,26-10.7c6.6-6.7,10.7-15.9,10.7-26C106.7,196.1,102.6,187,96,180.4z M81.4,137.2c14.7,2.4,28,9.5,38.1,19.7h0.1
		c1.6,1.6,3.2,3.4,4.6,5.1l25.3-14.6c-3.4-10.3-3.6-21-0.8-31.1c3.6-13.5,12.3-25.6,25.5-33.1l0.4-0.3c13-7.3,27.7-8.9,41-5.3
		c13.5,3.6,25.6,12.4,33.2,25.5v0c7.5,13,9.1,28,5.5,41.4c-3.6,13.5-12.4,25.6-25.5,33.2l-3.5,2h-0.4c-12.1,5.8-25.4,6.7-37.7,3.4
		c-10-2.7-19.3-8.3-26.5-16.2l-25.2,14.6c2.9,7.7,4.5,16,4.5,24.7c0,8.7-1.6,17.1-4.5,24.8l25.2,14.5c7.2-8.1,16.4-13.6,26.5-16.2
		c13.5-3.7,28.4-2.1,41.5,5.5l0.8,0.4v0.1c12.6,7.6,21.1,19.4,24.6,32.8c3.6,13.4,2.1,28.3-5.5,41.3l-0.5,0.9l-0.1-0.1
		c-7.6,12.6-19.5,21.1-32.6,24.7c-13.5,3.6-28.4,2-41.5-5.5v-0.1c-13.1-7.6-21.8-19.7-25.5-33.1c-2.7-10-2.6-20.8,0.8-31l-25.3-14.6
		c-1.4,1.8-3,3.5-4.6,5.1l-0.1,0.1c-10.1,10.1-23.4,17.2-38.1,19.5v29.2c10.5,2.2,19.9,7.4,27.3,14.8l0,0.1c9.9,9.8,16,23.5,16,38.6
		c0,15-6.1,28.6-16,38.5l0,0.2c-9.9,9.9-23.6,16-38.6,16c-15,0-28.6-6.1-38.6-16h0v-0.2c-9.9-9.9-16-23.5-16-38.5
		c0-15.1,6.1-28.7,16-38.6v-0.1h0c7.4-7.4,16.8-12.6,27.2-14.8v-29.2c-14.7-2.4-28-9.4-38-19.5l-0.1-0.1C7.9,243.1,0,225.6,0,206.3
		c0-19.3,7.9-36.7,20.5-49.4h0.1c10.1-10.2,23.3-17.2,38-19.7v-29.1c-10.5-2.3-19.9-7.5-27.2-14.8h0v-0.1c-9.9-9.9-16-23.5-16-38.6
		c0-15,6.1-28.7,16-38.6l0,0C41.3,6.1,55,0,70,0C85,0,98.7,6.1,108.6,16v0h0c9.9,9.9,16,23.6,16,38.6c0,15.1-6.1,28.6-16,38.6l0,0.1
		c-7.4,7.3-16.8,12.6-27.3,14.8V137.2z M223.4,117.8l-0.2-0.3c-3.5-5.9-9.1-9.8-15.2-11.5c-6.3-1.7-13.2-1-19.3,2.5h0
		c-6.1,3.4-10.1,9.1-11.8,15.4c-1.7,6.3-0.9,13.2,2.6,19.2l0.1,0.2c3.5,6,9.1,10,15.3,11.6c6.2,1.8,13.2,1,19.2-2.5l0.3-0.2
		c5.9-3.5,9.8-9.1,11.5-15.2C227.5,130.8,226.9,123.9,223.4,117.8z"/>
</g>
</svg>
