<?xml version="1.0" encoding="utf-8"?>
<!-- Generator: Adobe Illustrator 25.0.0, SVG Export Plug-In . SVG Version: 6.00 Build 0)  -->
<svg version="1.1" id="Layer_1" xmlns="http://www.w3.org/2000/svg" xmlns:xlink="http://www.w3.org/1999/xlink" x="0px" y="0px"
	 viewBox="0 0 256 208" style="enable-background:new 0 0 256 208;" xml:space="preserve">
<style type="text/css">
	.st0{fill:#37808C;}
	.st1{fill:#9BD3CD;}
	.st2{fill:#D6D6D6;}
</style>
<g transform="translate(-1.000000, 0.000000)">
	<path class="st0" d="M124.3,172.7c-38.9,0-70.4-31.5-70.4-70.4C54,63.5,85.5,32,124.3,32c38.9,0,70.4,31.5,70.4,70.4
		C194.7,141.2,163.2,172.7,124.3,172.7L124.3,172.7L124.3,172.7z M255.1,76.4c-12-55.2-78.2-87.7-147.9-72.5
		C37.6,19-9.1,76.1,2.9,131.3c12,55.2,78.2,87.7,147.9,72.5C220.4,188.6,267.1,131.6,255.1,76.4L255.1,76.4L255.1,76.4z"/>
	<path class="st1" d="M124,171.4c-38.2,0-69.2-31-69.2-69.2C54.8,64,85.8,33,124,33c38.2,0,69.2,31,69.2,69.2
		C193.2,140.4,162.2,171.4,124,171.4L124,171.4L124,171.4z M141.5,15.1c-49.7,0-90,40.3-90,90c0,49.7,40.3,90,90,90
		c49.7,0,90-40.3,90-90C231.5,55.4,191.2,15.1,141.5,15.1L141.5,15.1L141.5,15.1z"/>
	<g transform="translate(78.000000, 61.000000)">
		<path class="st2" d="M21,33.9l-7.5-15.8c-1.8-3.7-3.7-8-4.3-10L9,8.3c0.2,2.8,0.3,6.4,0.3,9.3l0.2,16.3H4.1V0.3h6.3l8.2,16.5
			c1.6,3.1,3,7.1,3.5,8.7l0.1-0.1c-0.1-1.7-0.5-6.5-0.5-9.6L21.6,0.3h5.3v33.7H21"/>
		<path class="st2" d="M41.7,12.8c-3,0-4.7,2.4-4.7,6.4h9.1C46.1,15.2,44.3,12.8,41.7,12.8L41.7,12.8L41.7,12.8z M36.9,23.1v0.4
			c0,3.4,1.3,7,6.1,7c2.3,0,4.3-0.8,6.1-2.4l2.1,3.3c-2.6,2.2-5.6,3.3-8.9,3.3c-7,0-11.3-5-11.3-12.9c0-4.3,0.9-7.2,3.1-9.6
			c2-2.3,4.4-3.3,7.5-3.3c2.4,0,4.7,0.6,6.8,2.5c2.1,1.9,3.2,5,3.2,10.7v1.1H36.9L36.9,23.1z"/>
		<path class="st2" d="M80.1,34h-5l-3-11.3c-0.8-2.9-1.6-6.7-1.6-6.7h-0.1c0,0-0.4,2.4-1.6,7l-3,11.1h-5L54.1,9.6l5.3-0.7l2.7,11.9
			c0.7,3.1,1.3,6.5,1.3,6.5h0.1c0,0,0.5-3.2,1.4-6.6l3.2-11.4h5.3l2.8,11.1c1,4,1.6,7,1.6,7h0.1c0,0,0.6-3.7,1.2-6.6l2.5-11.5h5.6
			L80.1,34"/>
		<path class="st2" d="M9,48.2H5.9v10.7h2.9c2.9,0,4.5-0.4,5.5-1.4c0.9-0.9,1.5-2.3,1.5-4.1C15.8,49.9,14,48.2,9,48.2L9,48.2L9,48.2
			z M16.8,77.3l-2.9-5.2c-2.3-4.1-3.9-6.5-5.7-8.3c-0.6-0.6-1.1-1-2.2-1v14.6H0.4V43.6h10.3c7.5,0,11,4.4,11,9.6
			c0,4.8-3.1,9.3-8.4,9.3c1.2,0.6,3.5,3.9,5.2,6.7l5,8.1H16.8L16.8,77.3z"/>
		<path class="st2" d="M35.5,56.1c-3,0-4.7,2.4-4.7,6.4H40C40,58.5,38.2,56.1,35.5,56.1L35.5,56.1L35.5,56.1z M30.8,66.5v0.4
			c0,3.4,1.3,7,6.1,7c2.3,0,4.3-0.8,6.1-2.4l2.1,3.3c-2.6,2.2-5.6,3.3-8.9,3.3c-7,0-11.3-5-11.3-12.9c0-4.3,0.9-7.2,3.1-9.6
			c2-2.3,4.4-3.3,7.5-3.3c2.4,0,4.7,0.6,6.8,2.5c2.1,1.9,3.2,5,3.2,10.7v1.1H30.8L30.8,66.5z"/>
		<path class="st2" d="M55.5,77.9c-5.4,0-5.4-4.9-5.4-7v-21c0-3.4-0.1-5.2-0.5-7.2l5.5-1.2c0.4,1.5,0.4,3.6,0.4,6.8v20.9
			c0,3.3,0.1,3.8,0.5,4.4c0.3,0.4,1.1,0.7,1.8,0.4l0.9,3.3C57.8,77.7,56.8,77.9,55.5,77.9"/>
		<path class="st2" d="M62.2,77.3V53.1l5.4-1v25.2H62.2L62.2,77.3z M64.8,49c-1.9,0-3.5-1.6-3.5-3.6c0-2,1.6-3.6,3.6-3.6
			c1.9,0,3.5,1.6,3.5,3.6C68.4,47.4,66.8,49,64.8,49L64.8,49L64.8,49z"/>
		<path class="st2" d="M82.9,78c-6.7,0-10.5-4.7-10.5-12.7c0-9,5.4-13.2,10.9-13.2c2.7,0,4.6,0.6,6.8,2.7l-2.7,3.6
			c-1.5-1.3-2.7-1.9-4.1-1.9c-1.7,0-3.1,0.9-3.9,2.5c-0.7,1.5-1,3.8-1,6.9c0,3.4,0.5,5.5,1.7,6.7c0.8,0.9,1.9,1.4,3.3,1.4
			c1.7,0,3.4-0.8,5-2.4l2.5,3.3C88.6,76.9,86.2,78,82.9,78"/>
		<path class="st2" d="M95.6,72.9c-0.1,0-0.3-0.1-0.5-0.1h-0.3v1.1h0.3c0.3,0,0.5,0,0.6-0.1c0.1-0.1,0.2-0.2,0.2-0.4
			C95.9,73.1,95.8,73,95.6,72.9L95.6,72.9L95.6,72.9z M96.1,76.2c-0.2-0.3-0.2-0.4-0.4-0.7c-0.4-0.7-0.5-0.9-0.7-1c0,0-0.1,0-0.1,0
			v1.7h-0.8v-4.1h1.5c0.7,0,1.2,0.5,1.2,1.2c0,0.6-0.4,1.1-0.9,1.1c0.1,0.1,0.1,0.1,0.2,0.2c0.2,0.3,1,1.6,1,1.6H96.1L96.1,76.2z
			 M95.4,71.3c-1.5,0-2.8,1.3-2.8,2.9c0,1.6,1.2,2.9,2.8,2.9c1.5,0,2.8-1.3,2.8-2.9C98.1,72.6,96.9,71.3,95.4,71.3L95.4,71.3
			L95.4,71.3z M95.4,77.9c-2,0-3.6-1.6-3.6-3.6c0-2,1.6-3.6,3.6-3.6c2,0,3.6,1.6,3.6,3.6C99,76.3,97.3,77.9,95.4,77.9L95.4,77.9
			L95.4,77.9z"/>
	</g>
</g>
</svg>
