<?xml version="1.0" encoding="utf-8"?>
<!-- Generator: Adobe Illustrator 25.0.0, SVG Export Plug-In . SVG Version: 6.00 Build 0)  -->
<svg version="1.1" id="Layer_1" xmlns="http://www.w3.org/2000/svg" xmlns:xlink="http://www.w3.org/1999/xlink" x="0px" y="0px"
	 viewBox="0 0 51.2 51" style="enable-background:new 0 0 51.2 51;" xml:space="preserve">
<style type="text/css">
	.st0{filter:url(#Adobe_OpacityMaskFilter);}
	.st1{fill-rule:evenodd;clip-rule:evenodd;fill:#FFFFFF;}
	.st2{mask:url(#mask-2_1_);fill-rule:evenodd;clip-rule:evenodd;fill:#29B5E8;}
</style>
<desc>Created with Sketch.</desc>
<g id="HOMEPAGE">
	<g id="Snowflake-Homepage-platform-alt-3-Copy" transform="translate(-98.000000, -111.000000)">
		<g id="Components-_x2F_-Navigation-_x2F_-Main" transform="translate(98.000000, 104.000000)">
			<g id="Logo-_x2F_-Snowflake-Blue" transform="translate(0.000000, 7.000000)">
				<g>
					<g id="Mask">
					</g>
					<defs>
						<filter id="Adobe_OpacityMaskFilter" filterUnits="userSpaceOnUse" x="0" y="0" width="51.2" height="51">
							<feColorMatrix  type="matrix" values="1 0 0 0 0  0 1 0 0 0  0 0 1 0 0  0 0 0 1 0"/>
						</filter>
					</defs>
					<mask maskUnits="userSpaceOnUse" x="0" y="0" width="51.2" height="51" id="mask-2_1_">
						<g class="st0">
							<polygon id="path-1_1_" class="st1" points="0,0 225.8,0 225.8,51 0,51 							"/>
						</g>
					</mask>
					<path id="Fill-1" class="st2" d="M17.1,26.4c0.1-0.3,0.2-0.7,0.1-1c0-0.2,0-0.5-0.1-0.7c-0.2-0.8-0.7-1.5-1.5-1.9L4.8,16.5
						c-1.5-0.9-3.5-0.4-4.4,1.2c-0.9,1.5-0.4,3.4,1.2,4.3l6.1,3.5L1.6,29c-1.5,0.9-2.1,2.8-1.2,4.3c0.9,1.5,2.8,2,4.4,1.2l10.9-6.2
						C16.4,27.8,16.9,27.2,17.1,26.4L17.1,26.4z M20.1,32.3c-0.6-0.1-1.3,0.1-1.9,0.4L7.3,38.9c-1.5,0.9-2.1,2.8-1.2,4.3
						c0.9,1.5,2.8,2,4.4,1.2l6.1-3.5v7c0,1.8,1.4,3.2,3.2,3.2c1.8,0,3.2-1.4,3.2-3.2V35.4C23,33.7,21.7,32.4,20.1,32.3L20.1,32.3z
						 M31.2,18.8c0.6,0.1,1.3-0.1,1.9-0.4l10.9-6.2c1.5-0.9,2-2.8,1.2-4.3c-0.9-1.5-2.8-2-4.4-1.2l-6.1,3.5v-7
						c0-1.7-1.4-3.2-3.2-3.2s-3.2,1.4-3.2,3.2v12.4C28.2,17.3,29.5,18.6,31.2,18.8L31.2,18.8z M7.3,12.1l10.9,6.2
						c0.6,0.3,1.2,0.5,1.9,0.4c1.7-0.1,3-1.5,3-3.2V3.2C23,1.4,21.6,0,19.8,0c-1.8,0-3.2,1.4-3.2,3.2v7l-6.1-3.5
						C9,5.8,7.1,6.3,6.2,7.8C5.3,9.3,5.8,11.3,7.3,12.1L7.3,12.1z M27.8,25.5c0-0.2-0.1-0.4-0.2-0.6l-1.3-1.3
						c-0.1-0.1-0.4-0.2-0.6-0.2h-0.1c-0.2,0-0.4,0.1-0.6,0.2l-1.3,1.3c-0.1,0.1-0.2,0.4-0.2,0.6v0.1c0,0.2,0.1,0.4,0.2,0.6l1.3,1.3
						c0.1,0.1,0.4,0.2,0.6,0.2h0.1c0.2,0,0.4-0.1,0.6-0.2l1.3-1.3C27.6,26,27.8,25.7,27.8,25.5L27.8,25.5z M31.4,26.7l-4.5,4.5
						c-0.1,0.1-0.4,0.2-0.6,0.2H26h-0.7H25c-0.2,0-0.4-0.1-0.6-0.2l-4.5-4.5c-0.1-0.1-0.2-0.4-0.2-0.6v-0.3v-0.7v-0.3
						c0-0.2,0.1-0.4,0.2-0.6l4.5-4.5c0.1-0.1,0.4-0.2,0.6-0.2h0.3H26h0.3c0.2,0,0.4,0.1,0.6,0.2l4.5,4.5c0.1,0.1,0.2,0.4,0.2,0.6
						v0.3v0.7v0.3C31.6,26.3,31.5,26.6,31.4,26.7L31.4,26.7z M43.9,38.9L33,32.7c-0.6-0.3-1.2-0.5-1.9-0.4c-1.7,0.1-3,1.5-3,3.2
						v12.4c0,1.8,1.4,3.2,3.2,3.2s3.2-1.4,3.2-3.2v-7l6.1,3.5c1.5,0.9,3.5,0.4,4.4-1.2C45.9,41.7,45.4,39.8,43.9,38.9L43.9,38.9z
						 M49.6,22l-6.1,3.5l6.1,3.5c1.5,0.9,2.1,2.8,1.2,4.3c-0.9,1.5-2.8,2-4.4,1.2l-10.9-6.2c-0.7-0.4-1.2-1.1-1.5-1.8
						c-0.1-0.3-0.2-0.7-0.1-1c0-0.2,0-0.5,0.1-0.7c0.2-0.8,0.7-1.5,1.5-1.9l10.9-6.2c1.5-0.9,3.5-0.4,4.4,1.2
						C51.7,19.2,51.2,21.2,49.6,22L49.6,22z"/>
				</g>
			</g>
		</g>
	</g>
</g>
</svg>
