<?xml version="1.0" encoding="utf-8"?>
<!-- Generator: Adobe Illustrator 25.0.0, SVG Export Plug-In . SVG Version: 6.00 Build 0)  -->
<svg version="1.1" id="Layer_1" xmlns="http://www.w3.org/2000/svg" xmlns:xlink="http://www.w3.org/1999/xlink" x="0px" y="0px"
	 viewBox="0 0 24.8 24.8" style="enable-background:new 0 0 24.8 24.8;" xml:space="preserve">
<style type="text/css">
	.st0{fill:#05A2D8;}
	.st1{fill:#923B95;}
	.st2{fill:#F8A266;}
	.st3{fill:#EF516F;}
</style>
<path class="st0" d="M5.7,9.1c0-0.2,0.1-0.4,0.2-0.6l6.4-6.4c2.8-2.8,7.2-2.8,10,0c0,0,0,0,0,0l0.4,0.4c1.8,1.8,2.5,4.5,1.8,7
	c-0.1,0.4-0.6,0.7-1,0.6c-0.4-0.1-0.7-0.6-0.6-1l0,0l0,0c0.6-1.9,0.1-4-1.4-5.4l-0.4-0.4c-2.1-2.1-5.6-2.1-7.7,0l0,0L7,9.6
	c-0.3,0.3-0.8,0.3-1.1,0C5.7,9.5,5.6,9.3,5.7,9.1z"/>
<path class="st1" d="M0,17.3c0-0.7,0.1-1.4,0.3-2c0.1-0.4,0.6-0.7,1-0.5s0.7,0.6,0.5,1l0,0c-0.6,1.9,0,4,1.4,5.4l0.4,0.4
	c2.1,2.1,5.6,2.1,7.7,0c0,0,0,0,0,0l0,0l6.4-6.4c0.3-0.3,0.8-0.3,1.1,0c0,0,0,0,0,0c0.3,0.3,0.3,0.8,0,1.1l-6.4,6.4
	c-2.8,2.8-7.2,2.8-10,0c0,0,0,0,0,0l-0.4-0.4C0.7,21,0,19.2,0,17.3z"/>
<path class="st2" d="M14.6,23.6c0-0.4,0.4-0.8,0.8-0.8c0.1,0,0.2,0,0.2,0c1.9,0.6,4,0,5.4-1.4l0.4-0.4c1-1,1.6-2.4,1.6-3.9l0,0
	c0-1.4-0.6-2.8-1.6-3.8L15,6.9c-0.3-0.3-0.2-0.8,0.1-1.1c0.3-0.2,0.7-0.2,1,0l6.4,6.4c1.3,1.3,2.1,3.1,2.1,5l0,0
	c0,1.9-0.7,3.7-2.1,5l-0.4,0.4c-1.8,1.8-4.5,2.5-7,1.8C14.8,24.3,14.6,23.9,14.6,23.6z"/>
<path class="st3" d="M0.2,7.6c0-1.9,0.8-3.7,2.1-5l0.4-0.4c1.8-1.8,4.5-2.5,7-1.8c0.4,0.1,0.6,0.6,0.5,1c-0.1,0.4-0.6,0.6-1,0.5
	c-1.9-0.6-4,0-5.4,1.4L3.4,3.8c-2.1,2.1-2.1,5.6,0,7.7l6.4,6.4c0.3,0.3,0.3,0.8,0,1.1c-0.3,0.3-0.8,0.3-1.1,0l0,0l0,0l-6.4-6.5
	C0.9,11.3,0.2,9.5,0.2,7.6z"/>
<path class="st3" d="M10.5,19.6c-0.6,0.6-1.6,0.6-2.2,0C7.8,19,7.8,18,8.5,17.4c0.6-0.5,1.4-0.5,2,0l0,0C11.1,18,11.1,19,10.5,19.6z
	"/>
<path class="st2" d="M16.3,7.1c-0.6,0.6-1.6,0.6-2.2,0c-0.6-0.6-0.6-1.6,0-2.2c0.6-0.6,1.6-0.6,2.2,0c0,0,0,0,0,0l0,0
	C16.9,5.5,16.9,6.5,16.3,7.1z"/>
<path class="st1" d="M19.6,16.5C19,17.1,18,17,17.5,16.4c-0.5-0.6-0.5-1.4,0-2c0.6-0.6,1.6-0.6,2.2,0c0,0,0,0,0,0l0,0
	C20.2,15,20.2,15.9,19.6,16.5z"/>
<path class="st0" d="M7.5,10.2c-0.6,0.6-1.6,0.6-2.2,0C4.7,9.6,4.7,8.6,5.3,8s1.6-0.6,2.2,0c0,0,0,0,0,0l0,0
	C8.1,8.6,8.1,9.6,7.5,10.2z"/>
</svg>
