<?xml version="1.0" encoding="utf-8"?>
<!-- Generator: Adobe Illustrator 25.0.0, SVG Export Plug-In . SVG Version: 6.00 Build 0)  -->
<svg version="1.1" id="Layer_1" xmlns="http://www.w3.org/2000/svg" xmlns:xlink="http://www.w3.org/1999/xlink" x="0px" y="0px"
	 viewBox="0 0 256 256" style="enable-background:new 0 0 256 256;" xml:space="preserve">
<style type="text/css">
	.st0{fill-rule:evenodd;clip-rule:evenodd;fill:#D6D6D6;}
</style>
<g>
	<path class="st0" d="M142.8,110.7h14.8V95.9h-14.8V110.7z M142.7,88.5h14.8V73.6h-14.8V88.5z M120.6,66.2h14.8V51.4h-14.8
		L120.6,66.2L120.6,66.2z M120.6,88.5h14.8V73.6h-14.8L120.6,88.5L120.6,88.5z M120.6,110.7h14.8V95.9h-14.8L120.6,110.7
		L120.6,110.7L120.6,110.7z M120.6,133h14.8v-14.8h-14.8L120.6,133L120.6,133z M98.3,66.2h14.8V51.4H98.3V66.2L98.3,66.2z
		 M98.3,88.5h14.8V73.6H98.3V88.5z M98.3,110.7h14.8V95.9H98.3V110.7z M142.7,66.2h14.8V51.4h-14.8V66.2L142.7,66.2z M0,0l127.5,256
		L256,0H0z"/>
</g>
</svg>
